# xmcd
#
# Track frame offsets: 
#        150
#        3506
#        23528
#        42252
#        63923
#        67212
#        88077
#        108032
#        128004
#        133104
#        153719
#        174935
#        196564
#        219019
#        240094
#        257057
#        273230
#
# Disc length: 4440 seconds
#
# Revision: 0
# Processed by: cddbd v1.5.2PL0 Copyright (c) Steve Scherf et al.
# Submitted via: ExactAudioCopy v0.99pb3
#
DISCID=d4115611
DTITLE=Syleena Johnson - Chapter 1: Love Pain and Forgiveness
DYEAR=2000
DGENRE=R&B
TTITLE0=The Beginning (Intro)
TTITLE1=I Am Your Woman
TTITLE2=You Said (feat. Liberty City)
TTITLE3=Baby I'm So Confused
TTITLE4=Meanwhile... (Interlude)
TTITLE5=Everybody Wants Something
TTITLE6=You Got Me Spinnin'
TTITLE7=Hit On Me
TTITLE8=And Then... (Interlude)
TTITLE9=He's Gonna Do You In (feat. Buddy Guy)
TTITLE10=You Ain't Right
TTITLE11=Ain't No Love
TTITLE12=One Day
TTITLE13=I'd Rather Be Wrong
TTITLE14=All Of Me
TTITLE15=The End (Outro)
TTITLE16=Track17 Copy Control
EXTD=
EXTT0=
EXTT1=
EXTT2=
EXTT3=
EXTT4=
EXTT5=
EXTT6=
EXTT7=
EXTT8=
EXTT9=
EXTT10=
EXTT11=
EXTT12=
EXTT13=
EXTT14=
EXTT15=
EXTT16=
PLAYORDER=
